<?xml version="1.0" standalone="no"?>
<!DOCTYPE svg PUBLIC "-//W3C//DTD SVG 20010904//EN"
 "http://www.w3.org/TR/2001/REC-SVG-20010904/DTD/svg10.dtd">
<svg version="1.0" xmlns="http://www.w3.org/2000/svg"
 width="50.000000pt" height="50.000000pt" viewBox="0 0 50.000000 50.000000"
 preserveAspectRatio="xMidYMid meet">

<g transform="translate(0.000000,50.000000) scale(0.100000,-0.100000)"
fill="#000000" stroke="none">
<path d="M0 250 l0 -250 250 0 250 0 0 250 0 250 -250 0 -250 0 0 -250z m370
0 l0 -140 -25 0 c-24 0 -25 2 -25 75 l0 75 -30 0 c-20 0 -30 5 -30 15 0 10 10
15 30 15 29 0 30 1 30 50 0 47 2 50 25 50 l25 0 0 -140z m-100 105 c0 -11 -11
-15 -40 -15 l-40 0 0 -66 0 -67 50 5 c44 4 50 3 50 -13 0 -17 -9 -19 -75 -19
l-75 0 0 95 0 95 65 0 c51 0 65 -3 65 -15z"/>
</g>
</svg>
